<?xml version="1.0" encoding="utf-8"?>
<!-- Generator: Adobe Illustrator 20.1.0, SVG Export Plug-In . SVG Version: 6.00 Build 0)  -->
<svg version="1.1" id="Layer_1" xmlns:sketch="http://www.bohemiancoding.com/sketch/ns"
	 xmlns="http://www.w3.org/2000/svg" xmlns:xlink="http://www.w3.org/1999/xlink" x="0px" y="0px" viewBox="0 0 80 80"
	 style="enable-background:new 0 0 80 80;" xml:space="preserve">
<style type="text/css">
	.st0{fill:#999999;}
	.st1{fill:#0FAA13;}
</style>
<g>
	<path class="st0" d="M18.5,55.5c-0.8,0-1.5,0.7-1.5,1.5s0.7,1.5,1.5,1.5h14.9c0.8,0,1.4-0.7,1.4-1.5s-0.7-1.5-1.5-1.5H18.5z"/>
	<path class="st0" d="M48.8,46.7c0-0.8-0.7-1.5-1.5-1.5H18.5c-0.8,0-1.5,0.7-1.5,1.5s0.7,1.5,1.5,1.5h28.9
		C48.2,48.2,48.8,47.5,48.8,46.7z"/>
	<path class="st0" d="M17,36.7c0,0.8,0.7,1.5,1.5,1.5h28.9c0.8,0,1.4-0.7,1.4-1.5s-0.7-1.5-1.5-1.5H18.5C17.7,35.2,17,35.9,17,36.7z
		"/>
	<path class="st0" d="M41.9,64H15.7c-1.3,0-2.3-1.1-2.3-2.3V13.2c0-1.2,1.1-2.2,2.3-2.2h40.5c1.2,0,2.2,1,2.2,2.2v27.5h3l0.1-27.5
		c0-2.8-2.3-5.2-5.2-5.2H21.6h-3.1h-2.8c-2.9,0-5.3,2.3-5.3,5.2v48.5c0,2.9,2.4,5.3,5.3,5.3h28.5c0.2,0,0.4,0,0.6,0L41.9,64z"/>
	<path class="st0" d="M18.7,24.8c-0.3,1-0.5,2.5-0.5,4.6c0,0.8,0.7,1.5,1.5,1.5h11.9c0.9,0,1.5-0.7,1.4-1.4c0-2.1-0.2-3.6-0.5-4.6
		c-0.4-1.3-1.1-2.3-2.1-3c0.3-0.7,0.5-1.5,0.5-2.3c0-2.9-2.4-5.3-5.3-5.3s-5.3,2.4-5.3,5.3c0,0.8,0.2,1.5,0.5,2.2
		C19.7,22.5,19.1,23.6,18.7,24.8z M25.7,17.3c1.3,0,2.3,1,2.3,2.3c0,0.5-0.2,1-0.5,1.4c-0.1,0-0.1,0.1-0.2,0.1c-1,0.8-2.3,0.8-3.3,0
		L23.9,21c-0.3-0.4-0.5-0.9-0.5-1.4C23.4,18.3,24.4,17.3,25.7,17.3z M21.6,25.9c0.3-1,0.6-1.4,1.3-1.8c0.8,0.5,1.8,0.8,2.8,0.8
		s2-0.3,2.8-0.8c0.6,0.4,1,0.9,1.3,1.7c0.1,0.2,0.2,0.8,0.3,2.1h-8.9C21.3,26.6,21.5,26,21.6,25.9z"/>
	<path class="st0" d="M53.3,24.6H38.2c-0.8,0-1.5,0.7-1.5,1.5s0.7,1.5,1.5,1.5h15.2c0.8,0,1.4-0.7,1.4-1.5
		C54.8,25.3,54.1,24.6,53.3,24.6z"/>
</g>
<g>
	<path class="st1" d="M64.4,47.2V62h6.3l-11,11L48.8,62h6.3V47.2H64.4 M70.7,62L70.7,62 M64.4,44.2h-9.2c-1.7,0-3,1.3-3,3V59h-3.3
		c-1.2,0-2.3,0.7-2.8,1.8s-0.2,2.4,0.6,3.3l10.9,11.1c0.6,0.6,1.3,0.9,2.1,0.9s1.6-0.3,2.1-0.9l10.9-11c0.6-0.5,0.9-1.3,0.9-2.2
		c0-1.7-1.3-3-3-3l0,0h-3.3V47.2C67.4,45.5,66,44.2,64.4,44.2L64.4,44.2z"/>
</g>
</svg>
